<svg width="135" height="33" viewBox="0 0 135 33" fill="none" xmlns="http://www.w3.org/2000/svg">
<path d="M53.4275 21.5315C50.0683 20.8527 46.6803 20.3344 46.6803 17.2081C46.6803 14 49.8727 13.0762 52.1217 13.0762C55.7858 13.0762 58.3397 14.7351 58.4777 18.0502H59.7C59.5045 13.7831 56.2575 12.0425 52.1217 12.0425C48.984 12.0425 45.4609 13.4846 45.4609 17.2081C45.4609 20.9062 48.8488 21.6948 52.208 22.3736C55.5931 23.0524 58.981 23.6242 58.981 26.9139C58.981 30.2854 55.6219 31.3444 53.2348 31.3444C49.3205 31.3444 45.8491 29.7418 46.0994 25.5H44.8771C44.8224 30.5022 48.5957 32.3781 53.2319 32.3781C56.2575 32.3781 60.2005 30.936 60.2005 26.9139C60.2005 23.0524 56.8154 22.2103 53.4275 21.5315Z" fill="white"/>
<path d="M72.5816 30.5839H72.5269L64.7818 12.5044H63.0332V31.9162H64.2555V13.9718H64.3102L71.9431 31.9162H73.1654L80.715 13.9718H80.7725V31.9162H81.9919V12.5044H80.2433L72.5816 30.5839Z" fill="white"/>
<path d="M95.8201 29.3303V21.258C95.8201 18.3767 93.3208 17.6162 90.8244 17.6162C87.4653 17.6162 85.5211 19.1653 85.383 22.2382H86.4385C86.5766 19.8188 88.2705 18.5147 90.8244 18.5147C94.0715 18.5147 94.7933 20.6356 94.7933 21.2608C94.7933 23.5451 94.5978 23.8436 89.8811 24.1704C87.5199 24.3619 84.6353 25.0407 84.6353 28.3023C84.6353 31.2371 86.7175 32.2426 89.4094 32.2426C92.1302 32.2426 94.0456 30.8005 94.7128 29.1444H94.7675V29.8795C94.7675 31.0202 95.0177 31.9187 96.6829 31.9187C96.959 31.9187 97.238 31.8652 97.5428 31.8089V30.9386C97.2092 30.9921 96.959 31.0202 96.7663 31.0202C95.8201 31.0174 95.8201 30.1471 95.8201 29.3303ZM94.7646 26.587C94.7646 27.3221 94.2354 31.3441 89.4353 31.3441C86.9361 31.3441 85.6879 29.9837 85.6879 28.2994C85.6879 26.2067 87.1029 25.3364 89.6021 25.0632C91.6556 24.79 93.9334 24.8998 94.7646 23.976V26.587Z" fill="white"/>
<path d="M109.754 21.7202L109.699 21.6667C112.003 21.3963 113.559 19.6275 113.559 17.5348C113.559 15.0337 112.032 12.5044 107.312 12.5044H99.3745V31.9133H107.312C111.448 31.9133 114.223 30.0093 114.223 26.4774C114.223 22.5623 110.283 21.6385 109.754 21.7202ZM100.594 13.5381H107.312C109.95 13.5381 112.337 14.5182 112.337 17.3179C112.337 19.6838 110.617 21.3146 107.312 21.3146H100.594V13.5381ZM107.312 30.8825H100.594V22.3455H107.312C109.921 22.3455 113.004 23.1623 113.004 26.4774C113.004 29.3587 110.81 30.8825 107.312 30.8825Z" fill="white"/>
<path d="M117.974 12.5044H116.918V15.3041H117.974V12.5044Z" fill="white"/>
<path d="M117.974 17.9404H116.918V31.9134H117.974V17.9404Z" fill="white"/>
<path d="M119.389 12.5044V13.5381H126.358V31.9162H127.577V13.5381H134.575V12.5044H119.389Z" fill="white"/>
<path d="M39.1019 32.0062V18.36C39.1019 17.9741 38.7798 17.6615 38.3858 17.6615H27.7733V1.09443C27.7733 0.719829 27.4627 0.418457 27.083 0.418457H10.6322C10.2497 0.418457 9.94197 0.722646 9.94197 1.09443V12.4959H1.22763C0.82499 12.4959 0.5 12.817 0.5 13.2085V32.0034C0.5 32.209 0.669685 32.3752 0.879634 32.3752H10.6322H19.7607H24.0603H27.0859H38.7252C38.9322 32.378 39.1019 32.209 39.1019 32.0062ZM9.93909 31.6344H1.25927V13.2423H9.93909V31.6344ZM27.014 31.6344H24.4371V18.4022H27.014V31.6344ZM27.014 17.6586H24.3882C23.9971 17.6586 23.6778 17.9713 23.6778 18.3543V31.6344H20.1375V13.169C20.1375 12.7973 19.8297 12.4959 19.4501 12.4959H10.6984V1.16203H27.014V17.6586Z" fill="white"/>
</svg>
