<svg width="61" height="42" viewBox="0 0 61 42" fill="none" xmlns="http://www.w3.org/2000/svg">
<path d="M17.0995 13.1918C17.2022 13.0224 17.369 12.9032 17.5678 12.853C17.632 12.8404 17.6897 12.8342 17.7539 12.8342C17.8886 12.8342 18.0233 12.8718 18.1388 12.9408C18.312 13.0412 18.4338 13.2044 18.4852 13.3989C18.5365 13.5934 18.5044 13.7942 18.3954 13.9637C18.2927 14.1331 18.1323 14.2523 17.9335 14.3025C17.7346 14.3464 17.5293 14.3213 17.3561 14.2147C17.1829 14.1143 17.061 13.9511 17.0097 13.7566C16.9648 13.5621 16.9969 13.3613 17.0995 13.1918ZM24.3613 9.37035C24.2907 9.34525 24.2137 9.3829 24.1881 9.45193L20.307 20.9352C19.55 23.1754 17.4459 24.7253 15.1686 24.7253H15.1045C14.0332 24.7065 12.994 24.3928 12.0959 23.8092C9.73515 22.2718 8.93969 19.1531 10.2933 16.7121C11.3774 14.7606 13.4943 13.6687 15.7075 13.8821C15.7139 13.9386 15.7267 13.995 15.7396 14.0515C15.8101 14.3904 15.9705 14.7104 16.2143 14.9551C16.6569 15.4006 17.2086 15.6077 17.7474 15.6077C18.4467 15.6077 19.1331 15.2563 19.5244 14.6288C19.8066 14.1707 19.89 13.6248 19.7617 13.104C19.627 12.5769 19.2934 12.1376 18.8187 11.8553C18.3504 11.5792 17.7923 11.4976 17.2599 11.6231C16.8558 11.7235 16.5029 11.9306 16.2335 12.2255C13.2056 11.7925 10.2483 13.2295 8.77291 15.9026C6.99596 19.1155 8.0416 23.213 11.14 25.2336C12.3204 26.0054 13.6868 26.4196 15.0916 26.4384H15.1815C18.2029 26.4384 20.9934 24.4116 21.9749 21.4811L25.856 9.99158C25.8816 9.92255 25.8431 9.84725 25.7726 9.82215L24.3613 9.37035Z" fill="#26BBAB"/>
<path d="M33.1042 23.8656C32.9182 24.1668 32.6231 24.3802 32.2767 24.4617C31.9303 24.5496 31.571 24.4931 31.2631 24.3111H31.2567C30.9488 24.1292 30.7307 23.8468 30.6473 23.5017C30.5639 23.1628 30.6152 22.8051 30.8012 22.5102C30.9873 22.209 31.2759 21.9957 31.6223 21.9141C31.7314 21.889 31.8405 21.8764 31.9495 21.8764C32.1869 21.8764 32.4242 21.9392 32.6359 22.0647C33.2774 22.4412 33.4827 23.2507 33.1042 23.8656ZM48.2114 2.28581C48.0447 2.17914 47.8779 2.07246 47.7175 1.97206C44.2406 -0.14262 40.0195 -0.556771 36.1256 0.823734C32.0971 2.25444 29.0115 5.3543 27.6707 9.32639L23.8089 20.7783C23.7768 20.8662 23.8282 20.9603 23.918 20.9917L25.2459 21.4246C25.3357 21.456 25.4383 21.4058 25.464 21.318L29.3322 9.86604C30.4997 6.39595 33.194 3.68514 36.7222 2.43641C40.1093 1.23788 43.7787 1.59556 46.7873 3.42787C46.9349 3.51572 47.0824 3.60984 47.23 3.70397C52.2336 7.04228 53.9079 13.5181 51.1303 18.7766C49.5842 21.707 46.9541 23.8091 43.721 24.7065C40.7573 25.5285 37.6781 25.221 34.971 23.8593C35.0736 23.4138 35.0672 22.9369 34.9517 22.4788C34.7528 21.7007 34.2525 21.0356 33.5468 20.6214C32.8412 20.2073 32.0137 20.0818 31.2118 20.2826C30.4099 20.4771 29.7363 20.9603 29.313 21.6505C28.8832 22.3408 28.7613 23.1565 28.9601 23.9346C29.159 24.719 29.6594 25.3779 30.365 25.792C30.8525 26.0807 31.3978 26.225 31.9559 26.225C32.2061 26.225 32.4563 26.1936 32.7065 26.1372C33.2517 26.0054 33.7329 25.7356 34.1306 25.3528C36.1 26.3442 38.2811 26.8525 40.475 26.8525C41.7259 26.8525 42.9832 26.6831 44.2021 26.3442C47.8907 25.3151 50.9057 22.9055 52.6763 19.5484C55.8581 13.5244 53.94 6.1073 48.2114 2.28581Z" fill="#F4D419"/>
<path d="M3.96154 33.1212C3.01854 33.1212 2.4027 33.4663 2.4027 34.0938C2.4027 36.1395 7.56675 35.0414 7.55392 38.4111C7.55392 40.0802 6.05281 41.1093 3.94871 41.1093C2.4476 41.1093 1.02348 40.5069 0.0419922 39.6284L0.741223 38.2667C1.72271 39.1452 2.94797 39.6221 3.97437 39.6221C5.09698 39.6221 5.76414 39.208 5.76414 38.4864C5.76414 36.403 0.600094 37.5639 0.600094 34.2382C0.600094 32.638 2.00497 31.634 4.08342 31.634C5.32792 31.634 6.54035 32.0231 7.43203 32.5941L6.76488 33.9809C5.72565 33.3722 4.68643 33.1212 3.96154 33.1212Z" fill="#26BBAB"/>
<path d="M10.9537 31.7031L14.1034 37.9154L17.2467 31.7031H19.1456V41.0529H17.6573L17.6445 34.0688L14.623 40.0803H13.571L10.5559 34.0688V41.0529H9.04199V31.7031H10.9537Z" fill="#26BBAB"/>
<path d="M25.5216 38.5554V37.9028H23.5522C22.5258 37.9028 22.0511 38.1726 22.0511 38.8503C22.0511 39.4904 22.5836 39.9045 23.456 39.9045C24.5786 39.9045 25.4382 39.3335 25.5216 38.5554ZM25.5345 41.0529V40.1869C25.0148 40.8144 24.1809 41.1219 23.1288 41.1219C21.5572 41.1219 20.5757 40.1744 20.5757 38.9194C20.5757 37.6204 21.57 36.7921 23.3213 36.7796H25.5216V36.5662C25.5216 35.6689 24.9314 35.1355 23.7896 35.1355C23.0903 35.1355 22.3719 35.374 21.647 35.8571L21.0055 34.7904C22.019 34.2005 22.7568 33.8931 24.136 33.8931C26.0092 33.8931 27.0612 34.828 27.074 36.3905L27.0869 41.0529H25.5345Z" fill="#26BBAB"/>
<path d="M34.9588 38.2856C34.9588 37.4573 34.2083 36.949 32.9509 36.9616H30.494V39.6348H32.9509C34.2083 39.6536 34.9588 39.1579 34.9588 38.2856ZM34.5868 34.3198C34.5868 33.548 33.9709 33.1025 32.9509 33.115H30.494V35.5748H32.9509C33.9709 35.5748 34.5868 35.123 34.5868 34.3198ZM36.2418 34.0374C36.2418 35.0791 35.6003 35.8697 34.5611 36.1207C35.8441 36.3341 36.6075 37.2314 36.6075 38.4864C36.6075 40.0928 35.2796 41.0529 33.1241 41.0529H28.8774V31.7031H33.0279C35.0101 31.7031 36.2418 32.5816 36.2418 34.0374Z" fill="#F4D419"/>
<path d="M42.1112 33.8931V35.3614C40.6486 35.2798 39.7185 36.1207 39.5966 37.3381V41.0529H38.0249V33.9495H39.5966V35.3677C40.0905 34.4013 40.963 33.8931 42.1112 33.8931Z" fill="#F4D419"/>
<path d="M47.2687 38.5554V37.9028H45.2993C44.2729 37.9028 43.7982 38.1726 43.7982 38.8503C43.7982 39.4904 44.3306 39.9045 45.2031 39.9045C46.3257 39.9045 47.1853 39.3335 47.2687 38.5554ZM47.2815 41.0529V40.1869C46.7619 40.8144 45.928 41.1219 44.8759 41.1219C43.3042 41.1219 42.3228 40.1744 42.3228 38.9194C42.3228 37.6204 43.3171 36.7921 45.0684 36.7796H47.2687V36.5662C47.2687 35.6689 46.6785 35.1355 45.5367 35.1355C44.8374 35.1355 44.1189 35.374 43.3941 35.8571L42.7526 34.7904C43.7661 34.2005 44.4974 33.8931 45.8766 33.8931C47.7498 33.8931 48.8019 34.828 48.8147 36.3905L48.8275 41.0529H47.2815Z" fill="#F4D419"/>
<path d="M60.9588 36.629V41.0529H59.3871V37.0557C59.3871 35.9889 58.7328 35.33 57.6358 35.33C56.4362 35.3426 55.6857 36.1583 55.5702 37.269V41.0529H53.9985V33.9495H55.5702V35.3112C56.0898 34.3198 57.02 33.8931 58.2452 33.8931C59.9452 33.8931 60.9588 34.9347 60.9588 36.629Z" fill="#F4D419"/>
<path d="M52.0932 33.9496H50.5215V35.5811H52.0932V33.9496Z" fill="#F4D419"/>
<path d="M52.0932 36.673H50.5215V41.0529H52.0932V36.673Z" fill="#F4D419"/>
</svg>
