<svg width="27" height="28" viewBox="0 0 27 28" fill="none" xmlns="http://www.w3.org/2000/svg">
<g id="Group">
<path id="Vector" d="M13.7554 1.13037C20.7904 1.13037 26.4854 6.82537 26.4854 13.8604C26.4854 20.8954 20.7904 26.5904 13.7554 26.5904C6.72039 26.5904 1.02539 20.8954 1.02539 13.8604C1.02539 6.82537 6.72039 1.13037 13.7554 1.13037Z" stroke="white" stroke-miterlimit="10"/>
<path id="Vector_2" fill-rule="evenodd" clip-rule="evenodd" d="M8.1947 18.4833C7.6587 18.2823 7.3237 17.9473 7.1227 17.4113C6.6537 16.1383 6.5197 10.7783 7.3907 9.70629C7.7257 9.37129 8.0607 9.10329 8.5967 9.10329C11.0087 8.83529 18.5127 8.90229 19.3837 9.17029C19.9197 9.37129 20.2547 9.70629 20.4557 10.1753C20.9917 11.5153 20.9917 16.3393 20.3887 17.6123C20.2547 17.9473 19.9867 18.2153 19.6517 18.3493C18.6467 18.8853 9.4007 18.8853 8.1947 18.4833ZM12.0137 16.0043C13.4877 15.2673 14.8947 14.5303 16.3687 13.7263C14.8947 12.9893 13.4877 12.1853 12.0137 11.4483C12.0137 12.9893 12.0137 14.4633 12.0137 16.0043Z" fill="white"/>
</g>
</svg>
