<svg width="663" height="393" viewBox="0 0 663 393" fill="none" xmlns="http://www.w3.org/2000/svg">
<path d="M360.788 349.004C358.129 353.408 353.911 356.528 348.96 357.721C344.009 359.005 338.874 358.18 334.473 355.519H334.381C329.98 352.858 326.863 348.729 325.671 343.682C324.479 338.727 325.212 333.497 327.871 329.185C330.53 324.781 334.656 321.661 339.608 320.468C341.166 320.101 342.725 319.918 344.284 319.918C347.676 319.918 351.069 320.835 354.095 322.67C363.264 328.176 366.198 340.012 360.788 349.004ZM576.72 33.4567C574.336 31.8969 571.952 30.3371 569.66 28.869C519.963 -2.05265 459.631 -8.10851 403.975 12.0777C346.393 32.998 302.289 78.3252 283.126 136.406L227.928 303.86C227.47 305.145 228.203 306.521 229.487 306.98L248.467 313.311C249.751 313.77 251.218 313.036 251.584 311.751L306.874 144.297C323.562 93.5566 362.072 53.9182 412.502 35.6589C460.915 18.1336 513.362 23.3636 556.365 50.1563C558.474 51.4408 560.582 52.8172 562.691 54.1935C634.21 103.007 658.142 197.699 618.439 274.59C596.342 317.44 558.749 348.178 512.536 361.299C470.175 373.319 426.164 368.823 387.47 348.912C388.937 342.398 388.846 335.424 387.195 328.726C384.353 317.348 377.201 307.622 367.115 301.566C357.029 295.511 345.201 293.675 333.739 296.612C322.278 299.456 312.651 306.521 306.599 316.614C300.456 326.708 298.714 338.636 301.556 350.013C304.398 361.483 311.55 371.117 321.636 377.173C328.605 381.394 336.398 383.504 344.376 383.504C347.951 383.504 351.527 383.045 355.103 382.22C362.897 380.293 369.774 376.347 375.459 370.75C403.608 385.248 434.783 392.68 466.141 392.68C484.021 392.68 501.992 390.202 519.413 385.248C572.135 370.2 615.23 334.965 640.537 285.876C686.015 197.791 658.6 89.3359 576.72 33.4567Z" fill="#F4D419"/>
<path d="M132.02 192.928C133.487 190.451 135.871 188.707 138.713 187.973C139.63 187.79 140.455 187.698 141.372 187.698C143.298 187.698 145.223 188.248 146.873 189.258C149.349 190.726 151.091 193.111 151.825 195.956C152.558 198.8 152.1 201.736 150.541 204.214C149.074 206.691 146.782 208.435 143.939 209.169C141.097 209.811 138.163 209.444 135.687 207.884C133.212 206.416 131.469 204.03 130.736 201.186C130.094 198.341 130.552 195.405 132.02 192.928ZM235.814 137.049C234.805 136.682 233.705 137.232 233.338 138.242L177.865 306.154C167.045 338.911 136.971 361.575 104.421 361.575H103.504C88.1914 361.299 73.3375 356.712 60.5008 348.178C26.7585 325.698 15.3889 280.096 34.7356 244.403C50.2314 215.867 80.4894 199.901 112.123 203.021C112.214 203.847 112.398 204.673 112.581 205.498C113.59 210.453 115.882 215.133 119.366 218.711C125.693 225.226 133.578 228.254 141.28 228.254C151.275 228.254 161.086 223.116 166.679 213.94C170.713 207.242 171.905 199.259 170.071 191.643C168.146 183.936 163.378 177.513 156.593 173.384C149.899 169.347 141.922 168.154 134.312 169.989C128.535 171.457 123.492 174.485 119.641 178.798C76.3633 172.466 34.0938 193.478 13.0049 232.566C-12.3934 279.545 2.55218 339.462 46.8388 369.007C63.7099 380.293 83.2401 386.349 103.32 386.624H104.604C147.79 386.624 187.676 356.987 201.705 314.137L257.177 146.133C257.544 145.123 256.994 144.022 255.985 143.655L235.814 137.049Z" fill="#F4D419"/>
</svg>
