<svg width="27" height="28" viewBox="0 0 27 28" fill="none" xmlns="http://www.w3.org/2000/svg">
<g id="Group">
<path id="Vector" d="M13.2837 1.12109C20.3187 1.12109 26.0137 6.81609 26.0137 13.8511C26.0137 20.8861 20.3187 26.5811 13.2837 26.5811C6.24871 26.5811 0.553711 20.8861 0.553711 13.8511C0.553711 6.81609 6.24871 1.12109 13.2837 1.12109Z" stroke="white" stroke-miterlimit="10"/>
<path id="Vector_2" fill-rule="evenodd" clip-rule="evenodd" d="M10.3355 17.2681C8.72751 17.2011 7.72251 16.0621 7.45451 15.1241C7.92351 15.1911 8.32551 15.1911 8.79451 15.0571C8.79451 15.0571 8.79451 15.0571 8.86151 15.0571C7.99051 14.8561 7.32051 14.3871 6.85151 13.6501C6.51651 13.1811 6.38251 12.5781 6.38251 12.0421C6.78451 12.2431 7.25351 12.3771 7.72251 12.4441C7.05251 11.9751 6.65051 11.3721 6.44951 10.5681C6.24851 9.76412 6.38251 9.02712 6.78451 8.35712C8.45951 10.3001 10.5365 11.3721 13.1495 11.5731C13.1495 11.4391 13.0825 11.3721 13.0825 11.2381C13.0155 10.5011 13.1495 9.83112 13.5515 9.22812C14.0205 8.49112 14.7575 7.95512 15.6285 7.82112C16.6335 7.62012 17.5715 7.95512 18.3085 8.69212C18.3755 8.75912 18.3755 8.75912 18.4425 8.75912C19.0455 8.62512 19.6485 8.42412 20.2515 8.08912C20.2515 8.08912 20.2515 8.08912 20.3185 8.08912C20.0505 8.82612 19.6485 9.36212 18.9785 9.76412C19.5815 9.69712 20.1175 9.56312 20.7205 9.29512C20.5865 9.42912 20.5195 9.63012 20.3855 9.76412C20.0505 10.1661 19.7155 10.5011 19.2465 10.8361C19.1795 10.8361 19.1795 10.9031 19.1795 10.9031C19.1795 11.3721 19.1795 11.8411 19.1125 12.2431C18.9785 13.1811 18.7105 14.1191 18.3085 14.9901C17.9065 15.8611 17.3035 16.7321 16.6335 17.4021C15.4275 18.6081 14.0205 19.4121 12.4125 19.7471C11.8765 19.8811 11.2735 19.9481 10.6705 19.9481C8.92851 20.0151 7.25351 19.5461 5.71251 18.6081C5.71251 18.6081 5.64551 18.6081 5.64551 18.5411C6.71751 18.6751 7.72251 18.5411 8.72751 18.1391C9.39751 17.9381 9.86651 17.6701 10.3355 17.2681Z" fill="white"/>
</g>
</svg>
